<?xml version="1.0" encoding="UTF-8"?>
<svg id="TF" xmlns="http://www.w3.org/2000/svg" viewBox="0 0 24 24">
  <path d="M16,5.5c.3,0,.55-.25.55-.55v-.3c0-.3-.25-.55-.55-.55s-.55.25-.55.55v.3c0,.3.25.55.55.55Z" style="fill: #8C8CFF; stroke-width: 0px;"/>
  <path d="M13.18,6.01c.1.17.28.28.48.28.1,0,.19-.03.27-.07.13-.07.22-.19.26-.34.04-.14.02-.29-.05-.42l-.15-.26c-.1-.17-.28-.28-.48-.28-.1,0-.19.03-.27.07-.13.07-.22.19-.26.34-.04.14-.02.29.05.41l.15.26Z" style="fill: #8C8CFF; stroke-width: 0px;"/>
  <path d="M21.11,11.53l-.26-.15c-.08-.05-.18-.07-.27-.07-.2,0-.38.11-.48.28-.07.13-.09.27-.05.42.04.14.13.26.26.34l.26.15c.08.05.18.07.27.07.2,0,.38-.11.48-.28.07-.13.09-.27.05-.42-.04-.14-.13-.26-.26-.34Z" style="fill: #8C8CFF; stroke-width: 0px;"/>
  <path d="M21.36,8.88h-.3c-.3,0-.55.25-.55.55s.25.55.55.55h.3c.3,0,.55-.25.55-.55s-.25-.55-.55-.55Z" style="fill: #8C8CFF; stroke-width: 0px;"/>
  <path d="M20.28,7.63c.1,0,.19-.02.27-.07l.26-.15c.26-.15.36-.49.2-.75-.1-.17-.28-.28-.48-.28-.1,0-.19.02-.27.07l-.26.15c-.13.07-.22.19-.26.34-.04.14-.02.29.05.42.1.17.28.28.48.28Z" style="fill: #8C8CFF; stroke-width: 0px;"/>
  <path d="M18.15,5.92c.08.05.18.07.27.07.2,0,.38-.11.48-.28l.15-.26c.07-.13.09-.27.05-.42-.04-.14-.13-.26-.26-.34-.08-.05-.18-.07-.27-.07-.2,0-.38.11-.48.28l-.15.26c-.07.13-.09.27-.05.42.04.14.13.26.26.34Z" style="fill: #8C8CFF; stroke-width: 0px;"/>
  <path d="M18.62,12.38c.74-.65,1.22-1.6,1.22-2.66,0-1.96-1.59-3.55-3.55-3.55-1.08,0-2.03.49-2.68,1.25-.97-.81-2.2-1.32-3.56-1.32-3.06,0-5.55,2.49-5.55,5.55,0,.54.08,1.07.23,1.58-1.52.41-2.63,1.79-2.63,3.42,0,1.96,1.59,3.55,3.55,3.55h9.8c2.51,0,4.55-2.04,4.55-4.55,0-1.3-.53-2.45-1.38-3.27Z" style="fill: #8C8CFF; stroke-width: 0px;"/>
</svg>