<?xml version="1.0" encoding="UTF-8"?>
<svg id="TL" xmlns="http://www.w3.org/2000/svg" viewBox="0 0 24 24">
  <path d="M19.78,10.8c.11-.35.16-.71.16-1.08,0-2.02-1.64-3.65-3.65-3.65-1.03,0-2,.43-2.69,1.19-.97-.79-2.2-1.26-3.55-1.26-3.12,0-5.65,2.54-5.65,5.65,0,.51.07,1.02.21,1.51-1.52.45-2.61,1.85-2.61,3.49,0,2.01,1.64,3.65,3.65,3.65h9.81c.36,0,.65-.29.65-.65s-.29-.65-.65-.65H5.66c-1.3,0-2.35-1.11-2.35-2.35s.98-2.26,2.22-2.33c.22-.01.41-.13.52-.31s.13-.4.04-.6c-.25-.56-.38-1.15-.38-1.75,0-2.4,1.96-4.35,4.35-4.35s4.35,1.96,4.35,4.28v.12c0,.18.07.36.21.48.13.12.32.18.5.16l.15-.02c.06-.01.12-.02.18-.02,1.85,0,3.35,1.5,3.35,3.35,0,.9-.35,1.74-.98,2.37-.25.25-.25.67,0,.92.26.25.67.25.92,0,.88-.88,1.36-2.05,1.36-3.29s-.51-2.42-1.34-3.26c.47-.43.83-.98,1.02-1.6ZM18.54,10.42c-.15.47-.44.88-.84,1.17-.61-.34-1.3-.55-2.04-.58-.12-1.05-.53-2.01-1.14-2.81.45-.51,1.08-.83,1.77-.83,1.3,0,2.35,1.06,2.35,2.35,0,.24-.04.47-.1.7Z" style="fill: #fff; stroke-width: 0px;"/>
  <path d="M16,5.6c.36,0,.65-.29.65-.65v-.3c0-.36-.29-.65-.65-.65s-.65.29-.65.65v.3c0,.36.29.65.65.65Z" style="fill: #fff; stroke-width: 0px;"/>
  <path d="M13.09,6.06c.18.31.58.42.89.24s.42-.58.24-.89l-.15-.26c-.18-.31-.58-.42-.89-.24s-.42.58-.24.89l.15.26Z" style="fill: #fff; stroke-width: 0px;"/>
  <path d="M21.16,11.44l-.26-.15c-.31-.18-.71-.07-.89.24s-.07.71.24.89l.26.15c.31.18.71.07.89-.24.18-.31.07-.71-.24-.89Z" style="fill: #fff; stroke-width: 0px;"/>
  <path d="M21.36,8.78h-.3c-.36,0-.65.29-.65.65s.29.65.65.65h.3c.36,0,.65-.29.65-.65s-.29-.65-.65-.65Z" style="fill: #fff; stroke-width: 0px;"/>
  <path d="M20.6,7.64l.26-.15c.31-.18.42-.58.24-.89-.18-.31-.58-.42-.89-.24l-.26.15c-.31.18-.42.58-.24.89s.58.42.89.24Z" style="fill: #fff; stroke-width: 0px;"/>
  <path d="M18.1,6.01c.31.18.71.07.89-.24l.15-.26c.18-.31.07-.71-.24-.89s-.71-.07-.89.24l-.15.26c-.18.31-.07.71.24.89Z" style="fill: #fff; stroke-width: 0px;"/>
</svg>