<?xml version="1.0" encoding="UTF-8"?>
<svg id="TF" xmlns="http://www.w3.org/2000/svg" viewBox="0 0 24 24">
  <path d="M17.52,8.95c-.28-2.8-2.65-5-5.52-5-.3,0-.55.25-.55.55s.25.55.55.55c2.45,0,4.45,2,4.45,4.39,0,.03,0,.07,0,.1,0,.16.07.3.18.41.12.1.27.15.42.14l.15-.02c.07,0,.13-.02.2-.02,1.9,0,3.45,1.55,3.45,3.45,0,.3.25.55.55.55s.55-.25.55-.55c0-2.47-1.97-4.48-4.43-4.55Z" style="fill: #8C8CFF; stroke-width: 0px;"/>
  <path d="M15.52,10.95c-.28-2.8-2.65-5-5.52-5-3.06,0-5.55,2.49-5.55,5.55,0,.54.08,1.07.23,1.58-1.52.4-2.63,1.79-2.63,3.42,0,1.96,1.59,3.55,3.55,3.55h9.8c2.51,0,4.55-2.04,4.55-4.55s-1.97-4.48-4.43-4.55Z" style="fill: #8C8CFF; stroke-width: 0px;"/>
</svg>