<?xml version="1.0" encoding="UTF-8"?>
<svg id="TL" xmlns="http://www.w3.org/2000/svg" viewBox="0 0 24 24">
  <path d="M17.61,8.85c-.32-2.81-2.72-5-5.61-5-.36,0-.65.29-.65.65s.29.65.65.65c2.4,0,4.35,1.95,4.35,4.28,0,.03,0,.08,0,.11,0,.18.08.36.21.48.14.12.32.19.5.16l.15-.02c.06,0,.12-.02.18-.02,1.85,0,3.35,1.5,3.35,3.35,0,.36.29.65.65.65s.65-.29.65-.65c0-2.49-1.97-4.53-4.44-4.65Z" style="fill: #fff; stroke-width: 0px;"/>
  <path d="M15.61,10.85c-.32-2.81-2.72-5-5.61-5-3.12,0-5.65,2.53-5.65,5.65,0,.51.07,1.02.21,1.51-1.52.45-2.61,1.85-2.61,3.49,0,2.01,1.64,3.65,3.65,3.65h9.8c.36,0,.65-.29.65-.65s-.29-.65-.65-.65H5.6c-1.3,0-2.35-1.05-2.35-2.35s.97-2.26,2.22-2.33c.21-.01.41-.13.52-.31.11-.18.13-.41.04-.6-.25-.56-.38-1.15-.38-1.75,0-2.4,1.95-4.35,4.35-4.35s4.35,1.95,4.35,4.28c0,.03,0,.08,0,.11,0,.18.08.36.21.48.14.12.32.19.5.16l.15-.02c.06,0,.12-.02.18-.02,1.85,0,3.35,1.5,3.35,3.35,0,.89-.35,1.74-.98,2.37-.25.25-.25.67,0,.92.25.25.67.25.92,0,.88-.88,1.36-2.05,1.36-3.29,0-2.49-1.97-4.53-4.44-4.65Z" style="fill: #fff; stroke-width: 0px;"/>
</svg>