<?xml version="1.0" encoding="UTF-8"?>
<svg id="TL" xmlns="http://www.w3.org/2000/svg" viewBox="0 0 24 24">
  <path d="M17.12,7.57c-.36-3.13-3.01-5.5-6.17-5.5-3.42,0-6.21,2.79-6.21,6.21,0,.59.07,1.13.18,1.75-1.68.5-2.85,2.07-2.85,3.81,0,2.2,1.79,3.99,3.99,3.99h10.9c.36,0,.65-.29.65-.65s-.29-.65-.65-.65H6.06c-1.45,0-2.68-1.23-2.68-2.68s1.11-2.59,2.53-2.67c.21,0,.41-.13.52-.31.12-.18.13-.41.04-.6-.28-.64-.43-1.3-.43-1.98,0-2.71,2.2-4.91,4.91-4.91s4.91,2.21,4.91,4.84c0,.03,0,.08,0,.11,0,.18.08.36.22.49.11.1.26.16.49.16,0,0,.19-.02.19-.02.06-.01.14-.02.21-.02,2.09,0,3.79,1.7,3.79,3.79,0,1.01-.39,1.96-1.11,2.68-.25.25-.25.67,0,.92.12.12.29.19.46.19s.34-.07.46-.19c.96-.97,1.49-2.25,1.49-3.61,0-2.73-2.14-4.97-4.93-5.15Z" style="fill: #fff; stroke-width: 0px;"/>
  <path d="M12.06,19.27c-.36,0-.65.29-.65.65v1.43c0,.36.29.65.65.65s.65-.29.65-.65v-1.43c0-.36-.29-.65-.65-.65Z" style="fill: #fff; stroke-width: 0px;"/>
</svg>