<?xml version="1.0" encoding="UTF-8"?>
<svg id="TF" xmlns="http://www.w3.org/2000/svg" viewBox="0 0 24 24">
  <path d="M12.06,19.37c-.3,0-.55.25-.55.55v1.43c0,.3.25.55.55.55s.55-.25.55-.55v-1.43c0-.3-.25-.55-.55-.55Z" style="fill: #8C8CFF; stroke-width: 0px;"/>
  <path d="M17.11,7.77h-.09s0-.1,0-.1c-.31-3.14-2.92-5.5-6.07-5.5-3.36,0-6.1,2.74-6.1,6.1,0,.58.09,1.16.26,1.74l.03.1-.1.03c-1.69.45-2.87,1.98-2.87,3.72,0,2.13,1.74,3.87,3.87,3.87h10.95c2.75,0,4.98-2.23,4.98-4.98s-2.13-4.91-4.85-4.98Z" style="fill: #8C8CFF; stroke-width: 0px;"/>
</svg>