<?xml version="1.0" encoding="UTF-8"?>
<svg id="Layer_1" data-name="Layer 1" xmlns="http://www.w3.org/2000/svg" viewBox="0 0 1600 360">
  <path d="M45.45,215.92V62.87H4.5v153.4c0,46.85,24.29,80.86,86.42,80.86h93.36v-40.95h-90.93c-36.79,0-47.89-17.7-47.89-40.26Z" style="fill: #fff;"/>
  <path d="M798.55,88.9c-27.42,69.41-54.83,138.82-82.25,208.23h45.12c24.76-62.82,49.51-125.63,74.27-188.45,2.43-5.55,6.25-7.98,11.8-7.98s9.37,2.43,11.45,7.98c23.72,62.82,47.43,125.63,71.15,188.45h45.46c-26.38-69.41-52.75-138.82-79.13-208.23-8.33-21.86-24.29-30.19-48.59-30.19s-40.6,8.33-49.28,30.19Z" style="fill: #fff;"/>
  <path d="M422,222.51c0,49.28-26.03,74.62-76,74.62h-49.28c-49.98,0-75.66-25.33-75.66-74.62V62.87h41.65v156.52c0,23.25,11.8,36.79,38.87,36.79h41.65c26.38,0,38.52-13.54,38.52-36.79v-91.45h40.26v94.57Z" style="fill: #fff;"/>
  <path d="M433.8,88.9v-26.03h-26.03c-6.9,0-13.52,2.74-18.41,7.62-4.88,4.88-7.62,11.5-7.62,18.41v26.03h26.03c6.9,0,13.52-2.74,18.4-7.62,4.88-4.88,7.62-11.5,7.62-18.41Z" style="fill: #27bdbe;"/>
  <path d="M1009.91,109.72v187.41h40.95V111.8c0-8.33,4.86-13.53,14.23-13.53,7.29,0,11.45,3.12,14.58,10.06,22.79,49.86,45.58,99.72,68.37,149.58,9.72,26.72,24.64,43.38,57.26,43.38,36.09,0,53.79-20.48,53.79-51.36V62.87h-41.3v185.33c0,7.98-5.21,13.19-13.88,13.19-7.64,0-12.15-4.16-14.92-9.72-22.79-49.86-45.58-99.72-68.37-149.58-9.72-26.72-24.29-43.38-56.92-43.38-36.44,0-53.79,20.48-53.79,51.02Z" style="fill: #fff;"/>
  <path d="M655.92,179.13c21.86-8.68,33.66-24.99,33.66-52.06,0-38.18-23.25-64.2-78.43-64.2h-103.07c-13.19,0-19.43,6.25-19.43,19.09v196.08c0,12.84,6.25,19.09,19.43,19.09h104.12c55.18,0,78.43-27.07,78.43-64.55,0-27.07-12.49-44.42-34.71-53.45ZM528.9,107.29c0-2.78,1.74-4.16,4.51-4.16h79.13c24.99,0,35.75,12.15,35.75,30.54s-11.8,28.11-36.09,28.11h-83.29v-54.49ZM613.23,256.52h-79.82c-2.78,0-4.51-1.04-4.51-3.82v-56.92h84.33c23.95,0,36.09,10.41,36.09,30.19s-11.45,30.54-36.09,30.54Z" style="fill: #fff;"/>
  <path d="M1423.56,102.78c-5.55,0-9.37,2.43-11.8,7.98-24.76,62.82-49.51,125.63-74.27,188.45h-45.12c27.42-69.41,54.83-138.82,82.25-208.23,8.68-21.86,24.64-30.19,49.28-30.19s40.26,8.33,48.59,30.19c1.88,4.95,3.76,9.9,5.64,14.85,2.47,6.49-2.33,13.44-9.27,13.44h-23.79c-4.13,0-7.82-2.55-9.28-6.41l-.79-2.09c-2.08-5.55-5.9-7.98-11.45-7.98ZM1466.33,193.7c13.28,35.17,26.56,70.34,39.83,105.51h45.46c-13.96-36.73-27.92-73.46-41.87-110.2-.98-2.57-3.43-4.26-6.18-4.26h-31.06c-4.62,0-7.82,4.62-6.19,8.95ZM1484.97,135.81h-30.94c-4.62,0-7.82,4.62-6.19,8.95,2.41,6.39,4.83,12.78,7.24,19.17.97,2.57,3.43,4.28,6.19,4.28h30.98c4.63,0,7.82-4.63,6.18-8.96-2.43-6.39-4.86-12.78-7.29-19.17-.98-2.57-3.43-4.26-6.18-4.26Z" style="fill: #03cfcb;">
    <animateTransform 
      attributeName="transform"
      repeatCount="indefinite"
      type="rotate"
      values="0 1422 180;180 1422 180;180 1422 180;360 1422 180;360 1422 180"
      keyTimes="0;0.3;0.5;0.8;1"
      dur="10"/>
  </path> 
</svg>