<?xml version="1.0" encoding="UTF-8"?>
<svg width="24px" height="24px" viewBox="0 0 24 24" version="1.1" xmlns="http://www.w3.org/2000/svg" xmlns:xlink="http://www.w3.org/1999/xlink">
    <title>play/l</title>
    <g id="play/l" stroke="none" stroke-width="1" fill="none" fill-rule="evenodd">
        <path d="M7.67,19.15 C7.3,19.15 6.93,19.05 6.59,18.86 C5.92,18.47 5.52,17.78 5.52,17 L5.52,7 C5.52,6.22 5.92,5.53 6.59,5.14 C7.26,4.75 8.07,4.75 8.74,5.14 L17.4,10.14 C18.07,10.53 18.47,11.22 18.47,12 C18.47,12.78 18.07,13.47 17.39,13.86 L12.19,16.86 C11.88,17.04 11.48,16.93 11.3,16.62 C11.12,16.31 11.23,15.91 11.54,15.73 L16.74,12.73 C17.12,12.51 17.17,12.14 17.17,11.99 C17.17,11.84 17.13,11.48 16.75,11.25 L8.09,6.25 C7.71,6.03 7.37,6.18 7.24,6.25 C7.11,6.32 6.81,6.54 6.81,6.99 L6.81,16.99 C6.81,17.43 7.11,17.65 7.24,17.73 C7.37,17.8 7.7,17.95 8.09,17.73 C8.4,17.55 8.8,17.66 8.98,17.97 C9.16,18.28 9.05,18.68 8.74,18.86 C8.4,19.05 8.03,19.15 7.67,19.15" id="Fill-1" fill="#FFFFFF"></path>
    </g>
</svg>