<?xml version="1.0" encoding="UTF-8"?>
<svg width="24px" height="24px" viewBox="0 0 24 24" version="1.1" xmlns="http://www.w3.org/2000/svg" xmlns:xlink="http://www.w3.org/1999/xlink">
    <title>pause/l</title>
    <g id="pause/l" stroke="none" stroke-width="1" fill="none" fill-rule="evenodd">
        <path d="M8.5,4.85 C8.14,4.85 7.85,5.14 7.85,5.5 L7.85,18.5 C7.85,18.86 8.14,19.15 8.5,19.15 C8.86,19.15 9.15,18.86 9.15,18.5 L9.15,5.5 C9.15,5.14 8.86,4.85 8.5,4.85 M15.5,4.85 C15.14,4.85 14.85,5.14 14.85,5.5 L14.85,18.5 C14.85,18.86 15.14,19.15 15.5,19.15 C15.86,19.15 16.15,18.86 16.15,18.5 L16.15,5.5 C16.15,5.14 15.86,4.85 15.5,4.85" id="Combined-Shape" fill="#8C8CFF"></path>
    </g>
</svg>